# AST/ASF file generated using VICON BodyLanguage
# -----------------------------------------------
:version 1.10
:name VICON
:units
  mass 1.0
  length 0.45
  angle deg
:documentation
   .ast/.asf automatically generated from VICON data using
   VICON BodyBuilder and BodyLanguage model FoxedUp or BRILLIANT.MOD
:root
   order TX TY TZ RX RY RZ
   axis XYZ
   position 0 0 0  
   orientation 0 0 0 
:bonedata
  begin
     id 1 
     name lhipjoint
     direction 0.671379 -0.66392 0.329334 
     length 2.38647 
     axis 0 0 0  XYZ
  end
  begin
     id 2 
     name lfemur
     direction 0.34202 -0.939693 0  
     length 6.48179  
     axis 0 0 20  XYZ
    dof rx ry rz
    limits (-160.0 20.0)
           (-70.0 70.0)
           (-60.0 70.0)
  end
  begin
     id 3 
     name ltibia
     direction 0.34202 -0.939693 0   
     length 6.86524   
     axis 0 0 20   XYZ
    dof rx
    limits (-10.0 170.0)
  end
  begin
     id 4 
     name lfoot
     direction 0.204886 -0.562919 0.800715   
     length 1.73031   
     axis -90 7.62852e-016 20   XYZ
    dof rx rz
    limits (-45.0 90.0)
           (-70.0 20.0)
  end
  begin
     id 5 
     name ltoes
     direction 1.53548e-011 -4.21841e-011 1   
     length 0.828161   
     axis -90 7.62852e-016 20   XYZ
    dof rx
    limits (-90.0 20.0)
  end
  begin
     id 6 
     name rhipjoint
     direction -0.662732 -0.670855 0.332775   
     length 2.3618  
     axis 0 0 0  XYZ 
  end
  begin
     id 7 
     name rfemur
     direction -0.34202 -0.939693 0   
     length 6.3025   
     axis 0 0 -20   XYZ
    dof rx ry rz
    limits (-160.0 20.0)
           (-70.0 70.0)
           (-70.0 60.0)
  end
  begin
     id 8 
     name rtibia
     direction -0.34202 -0.939693 0   
     length 6.8732   
     axis 0 0 -20   XYZ
    dof rx
    limits (-10.0 170.0)
 end
 begin
     id 9 
     name rfoot
     direction -0.173856 -0.477665 0.861168   
     length 1.54784  
     axis -90 -7.62852e-016 -20   XYZ
    dof rx rz
    limits (-45.0 90.0)
           (-20.0 70.0)
  end
  begin
     id 10 
     name rtoes
     direction -1.53562e-011 -4.21802e-011 1   
     length 0.759618   
     axis -90 -7.62852e-016 -20   XYZ
    dof rx
    limits (-90.0 20.0)
  end
  begin
     id 11 
     name lowerback
     direction -0.0278357 0.999497 -0.0151789   
     length 1.97203   
     axis 0 0 0   XYZ
    dof rx ry rz
    limits (-20.0 45.0)
           (-30.0 30.0)
           (-30.0 30.0)
  end
  begin
     id 12 
     name upperback
     direction -0.00360622 0.997542 0.0699804   
     length 1.94709   
     axis 0 0 0   XYZ
    dof rx ry rz
    limits (-20.0 45.0)
           (-30.0 30.0)
           (-30.0 30.0)
  end
  begin
     id 13 
     name thorax
     direction 0.00907706 0.997048 0.0762461   
     length 1.95722   
     axis 0 0 0   XYZ
    dof rx ry rz
    limits (-20.0 45.0)
           (-30.0 30.0)
           (-30.0 30.0)
  end
  begin
     id 14 
     name lowerneck
     direction -0.0481835 0.99872 -0.0153927   
     length 1.63078   
     axis 0 0 0   XYZ
    dof rx ry rz
    limits (-20.0 45.0)
           (-30.0 30.0)
           (-30.0 30.0)
  end
  begin
     id 15 
     name upperneck
     direction 0.0859716 0.979226 -0.183644   
     length 1.62591   
     axis 0 0 0   XYZ
    dof rx ry rz
    limits (-20.0 45.0)
           (-30.0 30.0)
           (-30.0 30.0)
  end
  begin
     id 16
     name head
     direction 0.0324821 0.997629 -0.0606773  
     length 1.64811  
     axis 0 0 0   XYZ
    dof rx ry rz
    limits (-20.0 45.0)
           (-30.0 30.0)
           (-30.0 30.0)
  end
  begin
     id 17 
     name lclavicle
     direction 0.939609 0.311019 0.142835  
     length 3.70647  
     axis 0 0 0   XYZ
    dof ry rz
    limits (-20.0 10.0)
           (0.0 20.0)
  end
  begin
     id 18 
     name lhumerus
     direction 1 -4.48963e-011 -1.59838e-027   
     length 4.59207   
     axis 180 -30 -90   XYZ
    dof rx ry rz
    limits (-60.0 90.0)
           (-90.0 90.0)
           (-90.0 90.0)
  end
  begin
     id 19
     name lradius
     direction 1 -4.48957e-011 -1.3483e-026   
     length 2.98109   
     axis 180 -30 -90   XYZ
    dof rx
    limits (-10.0 170.0)
  end
  begin
     id 20
     name lwrist
     direction 1 -4.48954e-011 -3.11579e-026   
     length 1.49055   
     axis 2.00652e-014 90 90   XYZ
    dof ry
    limits (-180.0 0.0)
 end
  begin
     id 21 
     name lhand
     direction 1 -4.4911e-011 -6.23158e-026   
     length 0.480203   
     axis 3.97628e-014 90 90   XYZ
    dof rx rz
    limits (-90.0 90.0)
           (-45.0 45.0)
  end
  begin
     id 22 
     name lfingers
     direction 1 -4.48893e-011 -1.24632e-025   
     length 0.387152   
     axis 7.95256e-014 90 90   XYZ
    dof rx
    limits (0.0 90.0)
  end
  begin
     id 23
     name lthumb
     direction 0.707107 -6.35013e-011 0.707107   
     length 0.555875   
     axis -90 45 2.85299e-015   XYZ
    dof rx rz
    limits (-45.0 45.0)
           (-45.0 45.0)
  end
  begin
     id 24 
     name rclavicle
     direction -0.950396 0.30392 0.0661859   
     length 3.70894  
     axis 0 0 0   XYZ 
    dof ry rz
    limits (-10.0 20.0)
           (-20.0 0.0)
  end
  begin
     id 25 
     name rhumerus
     direction -1 -4.48957e-011 -2.96677e-027  
     length 4.76508   
     axis 180 30 90   XYZ
    dof rx ry rz
    limits (-90.0 60.0)
           (-90.0 90.0)
           (-90.0 90.0)
  end
  begin
     id 26 
     name rradius
     direction -1 -4.48974e-011 -1.44501e-026   
     length 2.78902   
     axis 180 30 90   XYZ
    dof rx
    limits (-10.0 170.0)
  end
  begin
     id 27 
     name rwrist
     direction -1 -4.48978e-011 -3.11579e-026   
     length 1.39451   
     axis 2.00652e-014 -90 -90   XYZ
    dof ry
    limits (-180.0 0.0)
  end
  begin
     id 28
     name rhand
     direction -1 -4.48956e-011 -6.23158e-026   
     length 0.721303   
     axis 3.97628e-014 -90 -90   XYZ
    dof rx rz
    limits (-90.0 90.0)
           (-45.0 45.0)
  end
  begin
     id 29
     name rfingers
     direction -1 -4.4899e-011 -1.24632e-025   
     length 0.581533   
     axis 7.95256e-014 -90 -90   XYZ
    dof rx
    limits (0.0 90.0)
  end
  begin
     id 30
     name rthumb
     direction -0.707107 -6.34911e-011 0.707107   
     length 0.834968   
     axis -90 -45 -2.85299e-015   XYZ
    dof rx rz
    limits (-45.0 45.0)
           (-45.0 45.0)
  end
:hierarchy
  begin
    root lhipjoint rhipjoint lowerback
    lhipjoint lfemur
    lfemur ltibia
    ltibia lfoot
    lfoot ltoes
    rhipjoint rfemur
    rfemur rtibia
    rtibia rfoot
    rfoot rtoes
    lowerback upperback
    upperback thorax
    thorax lowerneck lclavicle rclavicle
    lowerneck upperneck
    upperneck head
    lclavicle lhumerus
    lhumerus lradius
    lradius lwrist
    lwrist lhand lthumb
    lhand lfingers
    rclavicle rhumerus
    rhumerus rradius
    rradius rwrist
    rwrist rhand rthumb
    rhand rfingers
  end

#!OML:ASF I:\salsa\salsa 7_09\Patient 1\Session 1\dancerfemale.ASF
:FULLY-SPECIFIED
:DEGREES
458
root 23.5966 15.6972 -0.465484 -183.69 -48.6338 192.349
lowerback 9.55822 -0.957524 5.27044
upperback -5.26455 -0.694361 -0.912749
thorax -11.1748 -0.799008 -3.82444
lowerneck -7.04365 12.4596 1.5307
upperneck 9.20226 15.4472 9.66655
head 3.57166 8.07182 3.72
rclavicle 4.92986e-014 1.59028e-014
rhumerus -24.8627 29.1227 -86.5033
rradius 80.3752
rwrist 0.507459
rhand -2.7719 82.0021
rfingers 7.12502
rthumb 22.9329 53.346
lclavicle 4.92986e-014 1.59028e-014
lhumerus -62.4591 3.07471 66.692
lradius 88.5093
lwrist -31.8107
lhand -39.2146 38.2986
lfingers 7.12502
lthumb -12.2106 67.9222
rfemur -6.5303 0.38087 22.53
rtibia 33.4201
rfoot -11.5825 4.85701
rtoes -25.9987
lfemur -33.6959 24.722 -16.3655
ltibia 51.6059
lfoot -30.4986 21.6734
ltoes -8.38542
459
root 23.6546 15.6829 -0.477744 -184.499 -47.6152 193.324
lowerback 9.75686 -1.02644 5.44381
upperback -5.036 -0.706249 -0.506103
thorax -11.0347 -0.786035 -3.47693
lowerneck -7.13285 12.8011 1.58336
upperneck 9.06453 15.9446 9.34058
head 3.54724 8.30785 3.6208
rclavicle -2.79541e-014 -6.36111e-015
rhumerus -24.7525 29.6952 -87.416
rradius 80.037
rwrist 0.510205
rhand -3.16229 82.5416
rfingers 7.12502
rthumb 22.5582 53.8395
lclavicle -2.79541e-014 -6.36111e-015
lhumerus -63.1013 3.45485 65.5842
lradius 88.1525
lwrist -31.4222
lhand -40.4067 38.5997
lfingers 7.12502
lthumb -13.3598 68.1514
rfemur -6.19698 0.266249 23.4641
rtibia 32.8293
rfoot -12.0342 4.89166
rtoes -25.9106
lfemur -34.0784 25.6192 -15.2058
ltibia 52.6397
lfoot -30.4701 21.6368
ltoes -9.6067
460
root 23.6992 15.6726 -0.486437 -185.264 -47.145 194.13
lowerback 9.97168 -1.12176 5.52134
upperback -4.79079 -0.771602 -0.123785
thorax -10.8894 -0.793586 -3.09241
lowerneck -7.26797 12.9855 1.49748
upperneck 9.02265 16.232 9.0817
head 3.55923 8.4411 3.56931
rclavicle -2.67117e-015 7.95139e-015
rhumerus -24.9535 30.1699 -88.465
rradius 79.8972
rwrist 0.343387
rhand -3.25997 82.7584
rfingers 7.12502
rthumb 22.4644 54.0449
lclavicle -2.67117e-015 7.95139e-015
lhumerus -63.596 3.72788 64.9348
lradius 88.0227
lwrist -30.3966
lhand -41.6587 37.8529
lfingers 7.12502
lthumb -14.5664 67.3215
rfemur -5.81766 -0.318867 24.1571
rtibia 32.4224
rfoot -12.5711 5.08186
rtoes -25.7492
lfemur -34.3036 26.1336 -14.2765
ltibia 53.4343
lfoot -30.5311 21.3738
ltoes -10.0226
461
root 23.7427 15.6564 -0.491152 -185.877 -47.0674 194.872
lowerback 10.2243 -1.18027 5.51431
upperback -4.672 -0.803779 0.212092
thorax -10.904 -0.790807 -2.71602
lowerneck -7.4054 13.0343 1.49415
upperneck 9.18985 16.3075 8.85233
head 3.66129 8.47497 3.52509
rclavicle 9.76157e-014 2.8625e-014
rhumerus -25.5763 30.3362 -89.8388
rradius 79.8945
rwrist 0.131527
rhand -2.79348 82.7709
rfingers 7.12502
rthumb 22.9122 54.1123
lclavicle 9.76157e-014 2.8625e-014
lhumerus -63.8822 3.92028 64.4965
lradius 87.9632
lwrist -29.5869
lhand -42.428 37.2365
lfingers 7.12502
lthumb -15.3074 66.65
rfemur -5.6834 -1.2383 24.7447
rtibia 32.1528
rfoot -12.9725 5.4124
rtoes -25.5359
lfemur -34.7529 26.4355 -13.5755
ltibia 54.1072
lfoot -30.4525 20.9644
ltoes -10.0312
462
root 23.7921 15.6348 -0.491151 -186.514 -47.4843 195.638
lowerback 10.7115 -1.25846 5.31841
upperback -4.67223 -0.86978 0.599793
thorax -11.1897 -0.798254 -2.16492
lowerneck -7.38069 13.0276 1.69176
upperneck 9.39399 16.309 8.42357
head 3.78511 8.46703 3.37342
rclavicle 8.50674e-014 1.11319e-014
rhumerus -26.4059 30.2725 -91.356
rradius 79.7322
rwrist 0.0977029
rhand -2.1424 82.7066
rfingers 7.12502
rthumb 23.5368 54.1267
lclavicle 8.50674e-014 1.11319e-014
lhumerus -64.1441 4.17557 64.3204
lradius 88.1048
lwrist -29.2765
lhand -42.4799 37.9878
lfingers 7.12502
lthumb -15.3574 67.3975
rfemur -5.66408 -2.28039 25.3202
rtibia 32.0196
rfoot -13.3134 5.54425
rtoes -25.7952
lfemur -35.3765 26.3972 -13.0453
ltibia 54.7278
lfoot -30.1817 20.4659
ltoes -10.045
463
root 23.826 15.61 -0.492169 -187.109 -48.296 196.443
lowerback 11.0102 -1.2488 5.02544
upperback -4.72774 -0.841956 1.04899
thorax -11.4136 -0.751377 -1.51124
lowerneck -7.21361 12.8831 2.03181
upperneck 9.59038 16.1375 7.78941
head 3.91721 8.36646 3.11584
rclavicle -3.25075e-014 -1.74931e-014
rhumerus -27.2898 29.8554 -92.7923
rradius 79.3315
rwrist 0.232737
rhand -1.58768 82.6154
rfingers 7.12502
rthumb 24.0688 54.1048
lclavicle -3.25075e-014 -1.74931e-014
lhumerus -64.391 4.38404 64.5976
lradius 88.5048
lwrist -29.226
lhand -42.2005 39.6031
lfingers 7.12502
lthumb -15.0883 69.0332
rfemur -5.72079 -3.18464 25.8628
rtibia 31.993
rfoot -13.6628 5.43244
rtoes -26.0943
lfemur -36.1284 26.1619 -12.716
ltibia 55.28
lfoot -29.8996 19.8495
ltoes -10.2303
464
root 23.8342 15.5845 -0.497585 -187.674 -49.4063 197.117
lowerback 11.1439 -1.15411 4.62776
upperback -4.77104 -0.728881 1.50141
thorax -11.5189 -0.653209 -0.815499
lowerneck -7.04378 12.596 2.08591
upperneck 9.82737 15.7964 7.29213
head 4.02995 8.17957 2.93751
rclavicle -6.64684e-014 -6.12257e-014
rhumerus -28.2285 29.1758 -94.1441
rradius 78.7895
rwrist 0.362021
rhand -1.03501 82.3626
rfingers 7.12502
rthumb 24.5986 53.9231
lclavicle -6.64684e-014 -6.12257e-014
lhumerus -64.4636 4.68579 65.1485
lradius 88.9587
lwrist -29.4457
lhand -42.4228 39.0721
lfingers 7.12502
lthumb -15.3025 68.486
rfemur -5.61598 -3.79367 26.2171
rtibia 31.9989
rfoot -14.0761 5.14863
rtoes -26.2627
lfemur -36.7378 25.7547 -12.6355
ltibia 55.711
lfoot -29.7035 19.2149
ltoes -10.5412
465
root 23.8245 15.5632 -0.506996 -188.025 -50.8069 197.419
lowerback 11.2159 -1.01379 3.93547
upperback -4.80096 -0.608639 1.91284
thorax -11.571 -0.529025 -0.00200983
lowerneck -6.91449 12.2441 1.83642
upperneck 10.0111 15.3905 6.96345
head 4.09032 7.95838 2.85251
rclavicle 2.69664e-014 -4.77083e-015
rhumerus -29.0793 28.4346 -95.4182
rradius 78.1316
rwrist 0.426708
rhand -0.708443 81.5749
rfingers 7.12502
rthumb 24.9116 53.1784
lclavicle 2.69664e-014 -4.77083e-015
lhumerus -64.3624 5.09784 65.8188
lradius 89.5122
lwrist -29.6274
lhand -43.4117 35.8675
lfingers 7.12502
lthumb -16.2549 65.2061
rfemur -5.37605 -4.18543 26.2556
rtibia 32.0132
rfoot -14.401 4.64295
rtoes -26.6204
lfemur -37.1858 25.2467 -12.9638
ltibia 55.9769
lfoot -29.5264 18.6298
ltoes -10.8081
466
root 23.7963 15.5486 -0.515939 -188.203 -52.5448 197.361
lowerback 11.331 -0.786111 2.99759
upperback -4.82003 -0.411665 2.26722
thorax -11.6398 -0.350155 0.872162
lowerneck -6.89688 11.6532 1.49787
upperneck 10.2093 14.6768 6.5754
head 4.18496 7.58024 2.75853
rclavicle -1.8987e-014 1.59028e-015
rhumerus -29.873 27.4028 -96.4902
rradius 77.5113
rwrist 0.338697
rhand -0.622551 80.6807
rfingers 7.12502
rthumb 24.9939 52.2956
lclavicle -1.8987e-014 1.59028e-015
lhumerus -64.1428 5.32657 66.8426
lradius 90.3088
lwrist -29.5788
lhand -45.0712 35.9209
lfingers 7.12502
lthumb -17.8522 65.1215
rfemur -4.97914 -4.52791 25.9826
rtibia 32.0749
rfoot -14.6843 3.81843
rtoes -27.3429
lfemur -37.3838 24.5254 -13.6577
ltibia 56.0565
lfoot -29.3895 18.038
ltoes -10.973
467
root 23.7442 15.5363 -0.510378 -188.606 -55.0146 197.474
lowerback 11.5001 -0.648329 2.34934
upperback -4.87853 -0.289531 2.61788
thorax -11.8004 -0.228835 1.59954
lowerneck -6.83753 10.7617 0.848086
upperneck 10.3767 13.5984 6.19836
head 4.2462 7.01006 2.69219
rclavicle 2.89667e-014 -2.3059e-014
rhumerus -30.6576 25.7305 -97.3638
rradius 76.7996
rwrist 0.346269
rhand -0.359037 79.7456
rfingers 7.12502
rthumb 25.2464 51.3959
lclavicle 2.89667e-014 -2.3059e-014
lhumerus -63.7799 5.47331 68.3071
lradius 91.161
lwrist -29.4819
lhand -46.0307 38.983
lfingers 7.12502
lthumb -18.7752 68.0969
rfemur -4.49027 -5.19484 25.6391
rtibia 32.2484
rfoot -14.96 2.63595
rtoes -28.1693
lfemur -37.4748 22.9717 -14.5125
ltibia 55.9632
lfoot -29.3107 17.4785
ltoes -11.2637
